<svg xmlns="http://www.w3.org/2000/svg" width="43.477" height="42.414" viewBox="0 0 43.477 42.414">
  <path id="Path_22" d="M122.376,37.888a1.529,1.529,0,0,0,.118.1,21.83,21.83,0,0,0,12.127,4.4l.095,0q.211.01.422.016l.124,0c.174,0,.348.006.522.006s.35,0,.525-.006l.119,0q.217-.006.432-.016l.083,0a21.808,21.808,0,0,0,12.288-4.514,1.523,1.523,0,0,0,.138-.121,20.989,20.989,0,0,0,8.152-16.542C157.523,9.513,147.771,0,135.785,0s-21.739,9.513-21.739,21.207A21,21,0,0,0,122.376,37.888Zm15.4,1.423-.286.027c-.106.009-.211.019-.317.027q-.276.02-.554.031l-.191.007c-.215.007-.431.012-.648.012s-.427,0-.64-.012l-.188-.007q-.265-.011-.529-.03c-.1-.007-.2-.016-.306-.025l-.33-.031c-.123-.013-.245-.026-.368-.041l-.065-.009a18.832,18.832,0,0,1-8.389-3.222V33.327a10.538,10.538,0,0,1,4.6-8.661,10.4,10.4,0,0,0,12.579,0,10.538,10.538,0,0,1,4.6,8.661v2.61h0A18.833,18.833,0,0,1,137.781,39.311ZM135.785,3A18.462,18.462,0,0,1,154.45,21.207,17.88,17.88,0,0,1,149.816,33.2a13.5,13.5,0,0,0-5.541-10.732,9.773,9.773,0,0,0,1.706-7.153,1.531,1.531,0,0,0-1.746-1.262,1.5,1.5,0,0,0-1.294,1.7,6.924,6.924,0,0,1,.079,1.04,6.837,6.837,0,0,1-1.39,4.131,7.17,7.17,0,0,1-2.744,2.2,7.3,7.3,0,0,1-6.056,0,7.17,7.17,0,0,1-2.744-2.2A6.836,6.836,0,0,1,128.7,16.8a7.084,7.084,0,0,1,7.162-6.987,7.377,7.377,0,0,1,1.609.177,1.537,1.537,0,0,0,1.841-1.126,1.5,1.5,0,0,0-1.154-1.8,10.534,10.534,0,0,0-2.3-.253A10.124,10.124,0,0,0,125.623,16.8a9.76,9.76,0,0,0,1.818,5.672A13.5,13.5,0,0,0,121.9,33.327v.033a17.887,17.887,0,0,1-4.779-12.153A18.462,18.462,0,0,1,135.785,3Z" transform="translate(-114.046)" fill="#001021"/>
</svg>
