<svg xmlns="http://www.w3.org/2000/svg" width="26.854" height="30.469" viewBox="0 0 26.854 30.469">
  <g id="password" transform="translate(-480 201)">
    <path id="Path_43" d="M146.877,30.469h21.1c1.586,0,2.877-.976,2.877-2.176V13.784c0-1.2-1.291-2.176-2.877-2.176h-.959V7.255c0-4-4.3-7.255-9.591-7.255s-9.591,3.254-9.591,7.255v4.353h-.959c-1.586,0-2.877.976-2.877,2.176V28.293C144,29.493,145.291,30.469,146.877,30.469Zm2.877-23.215c0-3.2,3.442-5.8,7.673-5.8s7.673,2.6,7.673,5.8v4.353h-1.918V7.255c0-2.4-2.581-4.353-5.755-4.353s-5.755,1.953-5.755,4.353v4.353h-1.918Zm11.509,4.353h-7.673V7.255c0-1.6,1.721-2.9,3.836-2.9s3.836,1.3,3.836,2.9Zm-15.345,2.176a.868.868,0,0,1,.959-.725h21.1a.868.868,0,0,1,.959.725V28.293a.868.868,0,0,1-.959.725h-21.1a.868.868,0,0,1-.959-.725Z" transform="translate(336 -201)" fill="rgba(0,16,33,0.78)"/>
    <path id="Path_44" d="M217.93,182.511v1.451c0,1.2,1.291,2.176,2.877,2.176s2.877-.976,2.877-2.176v-1.45a3.34,3.34,0,0,0,1.906-3.161c-.279-3.028-5.111-4.475-8.057-2.393C215.359,178.5,215.541,181.151,217.93,182.511Zm.914-4.492c1.769-1.25,4.667-.379,4.834,1.433a2.1,2.1,0,0,1-1.432,2.043.718.718,0,0,0-.479.628v1.839a1,1,0,0,1-1.918,0v-1.839a.718.718,0,0,0-.479-.628C217.717,180.772,217.415,179.028,218.844,178.018Z" transform="translate(272.619 -361.745)" fill="rgba(0,16,33,0.78)"/>
  </g>
</svg>
