<svg id="password" xmlns="http://www.w3.org/2000/svg" width="63.477" height="35.478" viewBox="0 0 63.477 35.478">
  <path id="Path_15" d="M91.313,297.743h-46.8c-4.6,0-8.339,4.29-8.339,9.564s3.741,9.563,8.339,9.563H49.4l-.631.588a3.051,3.051,0,0,0-.853,2.8,2.673,2.673,0,0,0,1.794,2.133l.328.1-1.617,7.224a1.688,1.688,0,0,0,1.04,2.016l4.91,1.445a1.265,1.265,0,0,0,.359.052,1.307,1.307,0,0,0,.735-.231,1.652,1.652,0,0,0,.663-1.014l1.617-7.225.328.1a2.266,2.266,0,0,0,2.468-.878,3.137,3.137,0,0,0,.427-2.922l-1.481-4.178H91.313c4.6,0,8.339-4.29,8.339-9.563S95.911,297.743,91.313,297.743ZM50.352,321.086v0Zm6.894.1a1.44,1.44,0,0,0-1.235.2,1.851,1.851,0,0,0-.749,1.144l-1.571,7.019-2.113-.622,1.571-7.018a2.1,2.1,0,0,0-.176-1.417,1.66,1.66,0,0,0-1-.858l-.731-.215,2.736-2.549,1.8-1.673.593,1.673,1.606,4.531Zm26.818-7.628H58.314l-.6-1.681a1.525,1.525,0,0,0-.979-.98,1.3,1.3,0,0,0-1.269.319l-2.514,2.342H44.514c-3.006,0-5.451-2.8-5.451-6.252s2.445-6.252,5.451-6.252H84.064v12.5Zm7.249,0H86.952v-12.5h4.361c3.006,0,5.451,2.8,5.451,6.252S94.319,313.558,91.313,313.558Z" transform="translate(-36.175 -297.743)" fill="#001021"/>
  <path id="Path_16" d="M409.784,329.361a2.717,2.717,0,0,0-2.959-.247,1.237,1.237,0,0,0-.346,2.109L407.9,332.5l-1.419,1.279a1.237,1.237,0,0,0,.346,2.109,2.679,2.679,0,0,0,1.305.324,2.5,2.5,0,0,0,1.654-.57l2.453-2.211a1.182,1.182,0,0,0,0-1.863Z" transform="translate(-353.547 -323.301)" fill="#001021"/>
  <path id="Path_21" d="M309.121,348.979a2.551,2.551,0,0,0,.217.436,2.387,2.387,0,0,0,.292.383,2.325,2.325,0,0,0,1.205.688,2.17,2.17,0,0,0,.459.05,2.21,2.21,0,0,0,.461-.05,2.369,2.369,0,0,0,.44-.144,2.338,2.338,0,0,0,.4-.232,2.266,2.266,0,0,0,.358-.313,2.505,2.505,0,0,0,.511-.819,2.7,2.7,0,0,0,.134-1.457,2.812,2.812,0,0,0-.134-.471,2.612,2.612,0,0,0-.217-.434,2.532,2.532,0,0,0-.294-.383,2.45,2.45,0,0,0-.358-.315,2.34,2.34,0,0,0-.4-.232,2.371,2.371,0,0,0-.44-.144,2.178,2.178,0,0,0-.92,0,2.307,2.307,0,0,0-.847.376,2.449,2.449,0,0,0-.358.315,2.376,2.376,0,0,0-.292.383,2.612,2.612,0,0,0-.217.434,2.809,2.809,0,0,0-.134.471,2.7,2.7,0,0,0-.047.494,2.708,2.708,0,0,0,.181.963Z" transform="translate(-269.525 -338.814)" fill="#001021"/>
  <path id="Path_23" d="M309.121,348.979a2.551,2.551,0,0,0,.217.436,2.387,2.387,0,0,0,.292.383,2.325,2.325,0,0,0,1.205.688,2.17,2.17,0,0,0,.459.05,2.21,2.21,0,0,0,.461-.05,2.369,2.369,0,0,0,.44-.144,2.338,2.338,0,0,0,.4-.232,2.266,2.266,0,0,0,.358-.313,2.505,2.505,0,0,0,.511-.819,2.7,2.7,0,0,0,.134-1.457,2.812,2.812,0,0,0-.134-.471,2.612,2.612,0,0,0-.217-.434,2.532,2.532,0,0,0-.294-.383,2.45,2.45,0,0,0-.358-.315,2.34,2.34,0,0,0-.4-.232,2.371,2.371,0,0,0-.44-.144,2.178,2.178,0,0,0-.92,0,2.307,2.307,0,0,0-.847.376,2.449,2.449,0,0,0-.358.315,2.376,2.376,0,0,0-.292.383,2.612,2.612,0,0,0-.217.434,2.809,2.809,0,0,0-.134.471,2.7,2.7,0,0,0-.047.494,2.708,2.708,0,0,0,.181.963Z" transform="translate(-292.555 -338.814)" fill="#001021"/>
  <path id="Path_24" d="M309.121,348.979a2.551,2.551,0,0,0,.217.436,2.387,2.387,0,0,0,.292.383,2.325,2.325,0,0,0,1.205.688,2.17,2.17,0,0,0,.459.05,2.21,2.21,0,0,0,.461-.05,2.369,2.369,0,0,0,.44-.144,2.338,2.338,0,0,0,.4-.232,2.266,2.266,0,0,0,.358-.313,2.505,2.505,0,0,0,.511-.819,2.7,2.7,0,0,0,.134-1.457,2.812,2.812,0,0,0-.134-.471,2.612,2.612,0,0,0-.217-.434,2.532,2.532,0,0,0-.294-.383,2.45,2.45,0,0,0-.358-.315,2.34,2.34,0,0,0-.4-.232,2.371,2.371,0,0,0-.44-.144,2.178,2.178,0,0,0-.92,0,2.307,2.307,0,0,0-.847.376,2.449,2.449,0,0,0-.358.315,2.376,2.376,0,0,0-.292.383,2.612,2.612,0,0,0-.217.434,2.809,2.809,0,0,0-.134.471,2.7,2.7,0,0,0-.047.494,2.708,2.708,0,0,0,.181.963Z" transform="translate(-284.878 -338.814)" fill="#001021"/>
  <path id="Path_25" d="M309.121,348.979a2.551,2.551,0,0,0,.217.436,2.387,2.387,0,0,0,.292.383,2.325,2.325,0,0,0,1.205.688,2.17,2.17,0,0,0,.459.05,2.21,2.21,0,0,0,.461-.05,2.369,2.369,0,0,0,.44-.144,2.338,2.338,0,0,0,.4-.232,2.266,2.266,0,0,0,.358-.313,2.505,2.505,0,0,0,.511-.819,2.7,2.7,0,0,0,.134-1.457,2.812,2.812,0,0,0-.134-.471,2.612,2.612,0,0,0-.217-.434,2.532,2.532,0,0,0-.294-.383,2.45,2.45,0,0,0-.358-.315,2.34,2.34,0,0,0-.4-.232,2.371,2.371,0,0,0-.44-.144,2.178,2.178,0,0,0-.92,0,2.307,2.307,0,0,0-.847.376,2.449,2.449,0,0,0-.358.315,2.376,2.376,0,0,0-.292.383,2.612,2.612,0,0,0-.217.434,2.809,2.809,0,0,0-.134.471,2.7,2.7,0,0,0-.047.494,2.708,2.708,0,0,0,.181.963Z" transform="translate(-277.201 -338.814)" fill="#001021"/>
  <path id="Path_26" d="M309.121,348.979a2.551,2.551,0,0,0,.217.436,2.387,2.387,0,0,0,.292.383,2.325,2.325,0,0,0,1.205.688,2.17,2.17,0,0,0,.459.05,2.21,2.21,0,0,0,.461-.05,2.369,2.369,0,0,0,.44-.144,2.338,2.338,0,0,0,.4-.232,2.266,2.266,0,0,0,.358-.313,2.505,2.505,0,0,0,.511-.819,2.7,2.7,0,0,0,.134-1.457,2.812,2.812,0,0,0-.134-.471,2.612,2.612,0,0,0-.217-.434,2.532,2.532,0,0,0-.294-.383,2.45,2.45,0,0,0-.358-.315,2.34,2.34,0,0,0-.4-.232,2.371,2.371,0,0,0-.44-.144,2.178,2.178,0,0,0-.92,0,2.307,2.307,0,0,0-.847.376,2.449,2.449,0,0,0-.358.315,2.376,2.376,0,0,0-.292.383,2.612,2.612,0,0,0-.217.434,2.809,2.809,0,0,0-.134.471,2.7,2.7,0,0,0-.047.494,2.708,2.708,0,0,0,.181.963Z" transform="translate(-299.74 -338.777)" fill="#001021"/>
</svg>
