<svg id="edit" xmlns="http://www.w3.org/2000/svg" width="34.459" height="34.285" viewBox="0 0 34.459 34.285">
  <path id="Path_40" d="M31.8,57.349a.858.858,0,0,0-.858.858v7.62A2.577,2.577,0,0,1,28.371,68.4H4.291a2.577,2.577,0,0,1-2.575-2.575V43.463a2.578,2.578,0,0,1,2.575-2.575h7.62a.858.858,0,0,0,0-1.716H4.291A4.3,4.3,0,0,0,0,43.463V65.827a4.3,4.3,0,0,0,4.291,4.291h24.08a4.3,4.3,0,0,0,4.291-4.291v-7.62a.858.858,0,0,0-.858-.858Zm0,0" transform="translate(0 -35.833)" fill="#001021"/>
  <path id="Path_41" d="M131.227,1.392a3.862,3.862,0,0,0-5.462,0L110.455,16.7a.858.858,0,0,0-.22.378l-2.013,7.269a.858.858,0,0,0,1.056,1.056l7.269-2.014a.858.858,0,0,0,.378-.22l15.31-15.311a3.866,3.866,0,0,0,0-5.462Zm-18.9,15.869L124.856,4.729,128.9,8.771,116.366,21.3Zm-.807,1.62,3.229,3.229-4.466,1.237Zm19.5-12.233-.91.91-4.042-4.042.91-.91a2.145,2.145,0,0,1,3.034,0l1.007,1.007A2.149,2.149,0,0,1,131.021,6.647Zm0,0" transform="translate(-98.905 -0.261)" fill="#001021"/>
</svg>
